<svg fill="none" height="118" viewBox="0 0 602 118" width="602" xmlns="http://www.w3.org/2000/svg"><path d="M111.671 86.295l11.23-11.25-18.633-18.666 4.595-4.602c11.741-11.762 11.741-31.066 0-42.828-11.87-11.762-31.013-11.762-42.754 0l-4.594 4.603-4.595-4.603C51.177 3.196 43.52 0 35.48 0c-8.17 0-15.699 3.196-21.442 8.821C8.296 14.574 5.233 22.117 5.233 30.3c0 8.054 3.19 15.725 8.806 21.478l4.594 4.602L0 75.044l11.23 11.25L29.865 67.63l20.292 20.327-18.633 18.665 11.23 11.25 18.634-18.665 18.633 18.665 11.23-11.25-18.505-18.665L93.038 67.63zM77.34 20.07a14.31 14.31 0 0 1 20.292 0 14.37 14.37 0 0 1 0 20.328L93.037 45 72.745 24.8zM25.27 40.526a14.37 14.37 0 0 1 0-20.327 14.31 14.31 0 0 1 20.292 0l4.594 4.603-20.292 20.327zm36.244 36.18L41.094 56.38l20.293-20.327L81.679 56.38zm123.412-41.421c-2.169 0-3.956.64-5.36 1.79s-2.169 2.812-2.169 4.986.638 3.963 1.914 5.241 2.935 2.43 5.105 3.069c2.042.767 4.467 1.406 7.019 2.045 2.553.64 5.105 1.406 7.658 2.43 2.552.894 4.849 2.045 6.891 3.45s3.829 3.325 5.105 5.882 1.915 5.497 1.915 8.949c0 6.136-2.425 11.378-7.403 15.725-4.977 4.346-11.486 6.52-19.654 6.52s-14.676-1.918-19.654-5.881c-4.977-3.963-7.402-9.46-7.402-16.62h18.761c.51 5.753 3.446 8.693 8.806 8.693 2.552 0 4.467-.639 5.998-2.045 1.404-1.279 2.17-3.068 2.17-5.114s-.638-3.707-1.915-4.986c-1.276-1.278-2.935-2.3-5.105-3.068-2.042-.767-4.466-1.406-7.019-2.173-2.552-.64-5.105-1.407-7.657-2.43-2.553-1.022-4.85-2.045-6.892-3.451-2.042-1.279-3.829-3.196-5.105-5.753s-1.914-5.497-1.914-8.95c0-6.775 2.552-12.144 7.53-16.108 4.977-4.09 11.358-6.136 19.143-6.136s14.039 1.79 18.888 5.242c4.85 3.58 7.275 9.076 7.53 16.747h-19.143c-.256-2.557-1.149-4.602-2.553-6.009-1.531-1.406-3.318-2.045-5.488-2.045zm50.412-4.602c-2.042 2.045-4.467 2.94-7.275 2.94-2.935 0-5.36-1.023-7.274-2.94-2.042-2.046-2.936-4.475-2.936-7.415s1.021-5.37 2.936-7.415c2.042-2.046 4.466-2.94 7.274-2.94 2.935 0 5.36 1.022 7.275 2.94 2.042 2.045 2.935 4.474 2.935 7.415 0 3.068-1.021 5.497-2.935 7.415zm-16.081 6.52h17.612v57.401h-17.612zm42.882 0v8.437c3.573-6.008 9.444-9.077 17.356-9.077 4.212 0 8.041 1.023 11.359 2.94 3.318 1.918 5.871 4.731 7.785 8.183 2.169-3.324 4.85-6.009 8.295-8.054 3.446-2.046 7.147-3.069 11.359-3.069 7.019 0 12.507 2.174 16.591 6.52s6.126 10.356 6.126 18.026v33.623h-17.485V63.538c0-3.707-1.021-6.52-2.935-8.565s-4.594-3.068-8.04-3.068-6.126 1.022-8.04 3.068c-1.915 2.045-2.936 4.858-2.936 8.565v31.194H284.09V63.538c0-3.707-1.021-6.52-2.936-8.565-1.914-2.046-4.594-3.068-8.04-3.068s-6.126 1.022-8.04 3.068-2.935 4.858-2.935 8.565v31.194h-17.612v-57.53zM420.264 87.19c-5.105-5.498-7.657-12.53-7.657-21.095s2.552-15.597 7.657-21.222c5.105-5.497 11.231-8.31 18.505-8.31 7.275 0 12.89 2.685 16.847 8.182v-7.542h17.612v57.401h-17.612v-8.31c-4.212 6.01-9.955 9.078-17.102 9.078-7.019 0-13.145-2.685-18.25-8.182zm31.651-10.74c2.552-2.428 3.828-6.008 3.828-10.483 0-4.474-1.276-8.054-3.828-10.483-2.553-2.429-5.488-3.707-8.679-3.707-3.318 0-6.253 1.278-8.678 3.707-2.553 2.43-3.829 6.009-3.829 10.484 0 4.474 1.276 8.054 3.829 10.483 2.552 2.429 5.488 3.707 8.678 3.707 3.191 0 6.126-1.278 8.679-3.707zm46.582-39.247v8.437c3.574-6.008 9.444-9.077 17.357-9.077 6.637 0 11.869 2.174 15.953 6.648 4.084 4.347 6.126 10.356 6.126 17.898v33.623h-17.484V63.538c0-3.707-1.021-6.52-2.936-8.565-1.914-2.046-4.594-3.068-8.04-3.068s-6.126 1.022-8.04 3.068c-1.915 2.045-2.936 4.858-2.936 8.565v31.194h-17.612v-57.53zm52.454 75.555h18.505L602 37.203h-18.378l-14.038 37.586-12.763-37.586h-19.909l22.334 56.379zm-184.544 0V86.295c4.084 6.008 9.827 9.077 16.974 9.077s13.273-2.685 18.378-8.182 7.657-12.53 7.657-21.095-2.552-15.597-7.657-21.222c-5.105-5.497-11.231-8.31-18.506-8.31-7.274 0-12.89 2.685-16.846 8.182v-7.542h-17.612v75.555zm3.701-57.274c2.553-2.429 5.488-3.707 8.678-3.707 3.319 0 6.254 1.278 8.679 3.707 2.552 2.43 3.829 6.009 3.829 10.483 0 4.475-1.277 8.055-3.829 10.484-2.553 2.429-5.488 3.707-8.679 3.707-3.318 0-6.253-1.278-8.678-3.707-2.552-2.43-3.829-6.009-3.829-10.484.128-4.602 1.277-8.054 3.829-10.483z" fill="#ff7b4a"/></svg>